<?xml version="1.0" encoding="UTF-8"?>
<svg width="49px" height="49px" viewBox="0 0 49 49" version="1.1" xmlns="http://www.w3.org/2000/svg" xmlns:xlink="http://www.w3.org/1999/xlink">
    <title>Path</title>
    <g id="Page-1" stroke="none" stroke-width="1" fill="none" fill-rule="evenodd">
        <path d="M44.3282253,4.68783644 C38.4649365,-1.17501748 29.1671614,-1.37613934 20.6764603,7.11383101 L12.6421072,15.1475883 C6.98248206,20.8067937 6.02076524,29.2968651 6.67825005,34.9560705 L23.4069679,18.2285933 C24.0130062,17.6226 24.9230743,17.6226 25.5291125,18.2285933 C26.1351508,18.8345866 26.1351508,19.7445872 25.5291125,20.3505805 L1.17084199,44.6580275 C0.312119336,45.5166864 0.312119336,46.98336 1.17084199,47.842019 C2.02956465,48.700678 3.49634704,48.700678 4.3550697,47.842019 L10.5716112,41.6259385 C15.4732843,43.0905908 26.6918651,43.3432565 33.7180074,36.4720644 L24.5187792,36.4720644 L38.3648735,31.8727409 C43.0652076,27.1727554 41.8017856,28.4874254 42.7118537,27.4767628 L33.514647,27.4767628 L45.8446349,23.3827706 C50.0908951,16.4107144 49.0801575,9.43663694 44.3285285,4.68753324 L44.3282253,4.68783644 Z" id="Path" fill="#000000" fill-rule="nonzero"></path>
    </g>
</svg>